# xmcd
#
# Track frame offsets:
#	150
#	13071
#	24721
#	36554
#	47494
#	57993
#	68501
#	79688
#	91628
#	103100
#	116830
#	128848
#	141788
#	154884
#	165839
#	179731
#	193648
#	202266
#	217118
#	227566
#	242087
#	255410
#	266985
#	276485
#	287184
#	301609
#	315029
#	328558
#	338472
#
# Disc length: 4686 seconds
# Revision: 0
# Processed by: cddbd v1.5.2PL0 Copyright (c) Steve Scherf et al.
# Submitted via: dBpowerAMP V12.0
#
DISCID=a0124c1d
DTITLE=Reg Lindsay - 1958-1955 Singles CD2
DYEAR=1955
DGENRE=Country
TTITLE0=From Forty to Sixty Five
TTITLE1=Hearts and Flowers
TTITLE2=When The Wagon Was New
TTITLE3=Im Just Here To Get My Baby Out of Jail
TTITLE4=Out On The Lone Prairie
TTITLE5=The Ballad of Davy Crockett
TTITLE6=The 57 That Rolls Into My Home Town
TTITLE7=My Baby Doll
TTITLE8=Rock Island Line
TTITLE9=The Caribbean
TTITLE10=Grab Your Saddle Horn and Blow
TTITLE11=Mysteries Of Life
TTITLE12=The Wayward Wind
TTITLE13=Mansion On The Hill
TTITLE14=Sorry It Ended This Way
TTITLE15=Driftwood On The River
TTITLE16=Blue Moon Of Kentucky
TTITLE17=Nobodys Child
TTITLE18=Ragged But Im Right
TTITLE19=Put Your Little Head on Daddys Shoulder
TTITLE20=Those Old Love Letters From You
TTITLE21=The Wayward
TTITLE22=Geisha Girl
TTITLE23=Marriage Vow
TTITLE24=Shes Still That Old Sweetheart of Mine
TTITLE25=Give My Love To Rose
TTITLE26=Skuthorpes Last Ride
TTITLE27=Lets Be Sweethearts Again
TTITLE28=Desert Lullaby
EXTD=
EXTT0=
EXTT1=
EXTT2=
EXTT3=
EXTT4=
EXTT5=
EXTT6=
EXTT7=
EXTT8=
EXTT9=
EXTT10=
EXTT11=
EXTT12=
EXTT13=
EXTT14=
EXTT15=
EXTT16=
EXTT17=
EXTT18=
EXTT19=
EXTT20=
EXTT21=
EXTT22=
EXTT23=
EXTT24=
EXTT25=
EXTT26=
EXTT27=
EXTT28=
PLAYORDER=
